<mxfile host="app.diagrams.net" modified="2024-01-19T05:17:23.821Z" agent="Mozilla/5.0 (Windows NT 10.0; Win64; x64) AppleWebKit/537.36 (KHTML, like Gecko) Chrome/120.0.0.0 Safari/537.36" version="22.1.20" etag="m0w6WxacSEj6q3-3cS50" type="github">
  <diagram name="第 1 页" id="uHLw3TmJLCXWFf_zV81D">
    <mxGraphModel>
      <root>
        <mxCell id="0" />
        <mxCell id="1" parent="0" />
      </root>
    </mxGraphModel>
  </diagram>
</mxfile>
